 
<svg xmlns="http://www.w3.org/2000/svg" viewBox="0 0 841.9 595.3">

<g transform="translate(0.000000,64.000000) scale(0.100000,-0.100000)"
fill="#7E52FF" stroke="none">
<path d="M305 630 c-72 -10 -133 -44 -141 -77 -6 -22 -2 -31 26 -54 85 -71
311 -64 374 12 31 36 24 56 -27 88 -28 17 -141 43 -172 40 -5 -1 -33 -5 -60
-9z"/>
<path d="M106 438 c-25 -41 -107 -270 -102 -285 14 -35 222 -107 294 -101 l37
3 3 159 c2 102 -1 163 -8 171 -6 7 -34 19 -63 25 -29 7 -69 21 -89 31 -48 24
-55 24 -72 -3z"/>
<path d="M565 440 c-22 -11 -64 -25 -93 -31 -32 -8 -57 -20 -63 -31 -5 -10 -8
-85 -7 -170 l3 -153 39 -3 c78 -7 265 58 290 100 18 29 -96 311 -124 307 -3 0
-23 -9 -45 -19z"/>
</g>
</svg>
